<svg xmlns="http://www.w3.org/2000/svg" viewBox="0 11.25 81.80000305175781 36.150001525878906" data-asc="0.94" width="81.80000305175781" height="36.150001525878906"><defs/><g fill="#2196f3"><g transform="translate(0, 0)"><path d="M15.85 11.60L22.25 11.60L26.30 23.35L30.40 11.60L36.75 11.60L30.65 27.75L35.15 39.05L45.20 11.50L52.70 11.50L38.50 47L32.55 47L26.30 32.10L20.10 47L14.15 47L0 11.50L7.40 11.50L17.50 39.05L21.90 27.75L15.85 11.60ZM77.50 20.80Q77.15 20.45 76.23 19.85Q75.30 19.25 73.98 18.70Q72.65 18.15 71.10 17.72Q69.55 17.30 67.95 17.30Q65.15 17.30 63.73 18.35Q62.30 19.40 62.30 21.30Q62.30 22.75 63.20 23.60Q64.10 24.45 65.90 25.05Q67.70 25.65 70.40 26.35Q73.90 27.20 76.48 28.43Q79.05 29.65 80.43 31.63Q81.80 33.60 81.80 36.85Q81.80 39.70 80.75 41.73Q79.70 43.75 77.85 45Q76 46.25 73.65 46.83Q71.30 47.40 68.65 47.40Q66 47.40 63.35 46.85Q60.70 46.30 58.25 45.27Q55.80 44.25 53.75 42.80L56.80 36.85Q57.25 37.30 58.40 38.02Q59.55 38.75 61.20 39.48Q62.85 40.20 64.80 40.70Q66.75 41.20 68.75 41.20Q71.55 41.20 73 40.25Q74.45 39.30 74.45 37.55Q74.45 35.95 73.30 35.05Q72.15 34.15 70.10 33.48Q68.05 32.80 65.25 32Q61.90 31.05 59.65 29.88Q57.40 28.70 56.30 26.90Q55.20 25.10 55.20 22.40Q55.20 18.75 56.93 16.27Q58.65 13.80 61.60 12.52Q64.55 11.25 68.15 11.25Q70.65 11.25 72.88 11.80Q75.10 12.35 77.05 13.25Q79 14.15 80.55 15.20L77.50 20.80Z"/></g></g></svg>